<?xml version="1.0" encoding="UTF-8"?>
<svg id="Capa_2" data-name="Capa 2" xmlns="http://www.w3.org/2000/svg" xmlns:xlink="http://www.w3.org/1999/xlink" viewBox="0 0 458.66 191.06">
  <defs>
    <style>
      .cls-1 {
        fill: #1d71b8;
      }

      .cls-1, .cls-2, .cls-3, .cls-4, .cls-5, .cls-6, .cls-7, .cls-8, .cls-9, .cls-10, .cls-11, .cls-12, .cls-13, .cls-14, .cls-15 {
        stroke-width: 0px;
      }

      .cls-2 {
        fill: #29235c;
      }

      .cls-3 {
        fill: #e30613;
      }

      .cls-4 {
        fill: #be1622;
      }

      .cls-5 {
        fill: #2fac66;
      }

      .cls-6 {
        fill: #f39200;
      }

      .cls-7 {
        fill: #fff;
      }

      .cls-8 {
        fill: url(#Degradado_sin_nombre_9);
      }

      .cls-9, .cls-15 {
        fill: #2d2e83;
      }

      .cls-10 {
        fill: #063;
      }

      .cls-11 {
        fill: #00a19a;
      }

      .cls-12 {
        fill: #36a9e1;
      }

      .cls-13 {
        fill: #1d1d1b;
      }

      .cls-14 {
        fill: #f9b233;
      }

      .cls-15 {
        opacity: .29;
      }
    </style>
    <linearGradient id="Degradado_sin_nombre_9" data-name="Degradado sin nombre 9" x1="0" y1="103.89" x2="458.66" y2="103.89" gradientUnits="userSpaceOnUse">
      <stop offset="0" stop-color="#36a9e1"/>
      <stop offset=".51" stop-color="#35a7df"/>
      <stop offset=".69" stop-color="#32a0da"/>
      <stop offset=".82" stop-color="#2c94d2"/>
      <stop offset=".92" stop-color="#2583c5"/>
      <stop offset="1" stop-color="#1d71b8"/>
    </linearGradient>
  </defs>
  <g id="Trazo">
    <g>
      <path class="cls-8" d="m364.06,191.06c-3.99,0-7.79-1.5-10.69-4.23l-10.83-10.19c-5.91-5.58-6.53-14.87-1.42-21.17l.75-.92c.29-1.31.67-2.82,1.15-4.39-1.28-.14-2.52-.46-3.68-.94-1.65.92-3.19,1.33-4.17,1.51-.86.16-1.72.24-2.73.24-.88,0-4.06-.08-7.96-1.18-2.83,1.38-5.82,2.39-8.87,2.96-2.08.39-4.21.59-6.33.59-10.06,0-19.18-4.33-25.22-11.29-.8.18-1.46.27-1.9.3-.41.03-.83.05-1.26.05-.7,0-1.39-.05-2.07-.16-.35-.04-.7-.09-1.05-.14-.62.74-1.29,1.48-1.98,2.26-1.11,1.24-2.22,2.46-2.61,2.9-2.19,2.55-5.04,4.26-8.25,4.95-.92.2-1.87.29-2.9.29-3.39,0-7.63-.91-11.74-3.02-1.91,2.6-4.75,4.44-7.89,5.12l-.1.02c-.2.04-.41.08-.61.12l-13.09,2.13c-.13.02-.27.04-.4.06-.58.07-1.16.11-1.74.11-5.98,0-11.1-3.84-12.82-9.49-1.83,1.14-3.94,1.91-6.27,2.25l-.82.12c-2.11.31-4.21.47-6.26.47-12.53,0-23.21-6.05-29.05-15.65l-7.35-.75c-1.96,1.76-4.36,2.88-7.12,3.33-5.15,1.03-11.49,2.28-13.07,2.49l-.17.02c-.57.08-1.18.12-1.78.12-6.4,0-12.01-4.54-13.44-10.83-.37.22-.66.4-.84.51-2.47,1.58-5.28,2.42-8.14,2.42-.39,0-.78-.02-1.16-.05-4.07-.32-9.22-2.99-13.24-6.84-2.24,1.7-5.02,2.71-8,2.71-.32,0-.74-.02-1.06-.04h-.03c-.23-.02-.45-.04-.68-.07l-13.16-1.71c-.13-.02-.26-.04-.39-.06-.1-.02-.19-.03-.29-.05-1.86.93-3.95,1.45-6.14,1.45-.52,0-1.04-.03-1.56-.09-.07,0-16.98-2.24-16.98-2.24-.39-.01-.78-.05-1.17-.1l-1.78-.24c.64.91,1.15,1.93,1.53,3.04l2.76,8.23,8.3-2.56c1.18-.36,2.37-.54,3.54-.54,5.12,0,9.87,3.31,11.46,8.46l1.01,3.26c.67,2.18.71,4.49.12,6.66.56,1.07,1.01,2.17,1.35,3.24,1.77,5.72.79,11.91-2.69,16.98-2.74,4-6.89,7.09-11.38,8.47-.71.22-1.43.4-2.15.54-1.42,1.93-3.42,3.46-5.86,4.28l-3.23,1.08c-1.26.42-2.55.62-3.81.62-5.02,0-9.69-3.17-11.38-8.19l-2.76-8.23-8.29,2.56c-1.18.36-2.37.54-3.54.54-5.12,0-9.87-3.31-11.46-8.46l-1.01-3.26c-.94-3.04-.63-6.33.85-9.15.04-.07.07-.13.11-.2-1.45-1.2-2.62-2.73-3.42-4.5-1.52-3.46-1.43-7.31.23-10.65.07-.14.14-.27.21-.4l1.85-3.41c1.29-2.39,3.39-4.33,5.9-5.43,1.04-.46,2.14-.78,3.27-.94,1.06-1.04,2.31-1.9,3.71-2.52,1.34-.59,2.8-.94,4.27-1.03,1.06-.83,2.27-1.51,3.63-1.96l.09-.03c-4.27-2.69-6.9-7.71-6.36-13.04.01-.12.03-.24.04-.36l4.04-30.34c-2.17.54-4.39.81-6.65.81h0c-11.32,0-21.44-6.74-25.79-17.18-3.38-8.11-2.7-16.96,1.27-24.19-1.67-6.68,1.76-13.8,8.33-16.54l6.23-2.59c1.74-.72,3.58-1.09,5.46-1.09,3.56,0,6.88,1.31,9.43,3.57.69.12,1.36.3,2.02.53l6.19,2.11c3.59,1.22,6.5,3.77,8.18,7.18.62,1.27,1.05,2.6,1.28,3.96,1.25,1.74,2.31,3.62,3.14,5.61.53,1.28.97,2.58,1.3,3.9l10.24,1.34c.2.03.4.06.6.09l17.72,2.36c.19.03.38.06.57.09l.13.02c6.97,1.31,11.83,7.84,11.11,14.87-.02.15-.03.29-.05.44l-.44,3.16,1.05.14c1.58-.15,3.13-.22,4.64-.22,1.21,0,2.43.05,3.61.14,7.86.63,14.73,3.19,20.15,7.18,4.1-9.73,13.08-16.51,24.95-18.08,1.6-.21,3.24-.32,4.87-.32,1.99,0,3.95.16,5.85.47.39.06.78.13,1.16.22,1.37-5.57,6.31-9.5,12.11-9.5.59,0,1.24.04,1.83.13l3.67.55c4.09.58,7.55,3.18,9.36,6.71,1.51.86,2.83,2.03,3.86,3.42.38.06.76.14,1.13.23.61-.09,1.22-.14,1.84-.14,2.04,0,5.08.5,8.04,2.88l1.45,1.15c1.51-.35,3.05-.53,4.59-.53,3.01,0,5.96.66,8.53,1.92.37.18.73.38,1.08.6,2.25,1.4,3.97,3.48,4.98,5.87h.32c3.15-3.97,8.76-6.01,14.32-6.01,7.42,0,13.62,4.3,16.2,10.55,2.43-2.32,5.61-3.59,8.67-3.84l.25-.02c.2-.02.39-.03.59-.03,0,0,13-.43,13.04-.43.09,0,.24,0,.33,0,7.23,0,12.94,5.19,13.71,12.4,3.5,2.17,5.97,5.92,6.38,10.27,1.45-.49,2.96-.89,4.52-1.18,2.2-.41,4.46-.62,6.73-.62,1.01,0,2.02.04,3.01.12.51-.15,1.03-.27,1.56-.37l.36-.07c.33-.06.67-.11,1-.14l11.76-1.17c.59-.06,1.17-.09,1.75-.09,6.9,0,12.59,4.61,13.83,11.21l.07.36c.11.59.18,1.19.2,1.8l.03,1.03c.05,1.41.09,2.84.15,4.23,5.81-1.08,17.21-2.39,41.58-4.6,1.37-2.58,3.52-4.81,6.25-6.34,2.45-1.45,4.91-2.88,7.33-4.26.31-.17.61-.35.92-.52-.22-1.59-.18-3.23.13-4.84.45-2.32,1.43-4.47,2.93-6.42,1.14-1.47,2.53-2.73,4.13-3.74,3.44-2.17,8.31-3.57,11.42-4.11v-.03c.87-.17,2.67-.49,4.89-.74.74-.08,1.79-.19,2.91-.26l5.47-4.12c2.09-1.58,4.63-2.42,7.22-2.42.57,0,1.15.04,1.72.12,3.17.46,6.02,2.17,7.93,4.74l9.08,12.29c3.83,5.18,2.88,12.47-2.15,16.5l-5.66,4.53c-.27.6-.52,1.2-.77,1.79-.15.36-.24.61-.34.86l-.09.25c-2.19,5.66-3.7,8.27-4.4,9.33-.03.05-.06.09-.09.14-1.36,1.98-3.89,5.66-9,7.86-2.41,1.04-5.01,1.57-7.72,1.57h0c-.85,0-1.6-.05-2.19-.11-.3.42-.6.83-.9,1.25-.91,1.28-1.81,2.55-2.68,3.81-2.17,3.28-5.58,5.57-9.4,6.32-.91.18-1.88.28-2.84.28-1.29,0-2.57-.17-3.8-.51-.46,1.29-1.11,2.52-1.93,3.63-2.26,3.06-5.72,5.07-9.49,5.52l-.39.05c1.52,2.08,2.57,4.45,3.1,6.95,1.44,2.47,2.28,5.23,2.44,8.12.26,4.61-1.22,9.22-4.27,13.33-4.82,6.49-10.83,10.87-18.29,13.3l-1.55,1.26c-2.77,2.26-6.27,3.5-9.85,3.5h0ZM96.77,99.7h0Z"/>
      <path class="cls-8" d="m364.06,191.06c-3.99,0-7.79-1.5-10.69-4.23l-10.83-10.19c-5.91-5.58-6.53-14.87-1.42-21.17l.75-.92c.29-1.31.67-2.82,1.15-4.39-1.28-.14-2.52-.46-3.68-.94-1.65.92-3.19,1.33-4.17,1.51-.86.16-1.72.24-2.73.24-.88,0-4.06-.08-7.96-1.18-2.83,1.38-5.82,2.39-8.87,2.96-2.08.39-4.21.59-6.33.59-10.06,0-19.18-4.33-25.22-11.29-.8.18-1.46.27-1.9.3-.41.03-.83.05-1.26.05-.7,0-1.39-.05-2.07-.16-.35-.04-.7-.09-1.05-.14-.62.74-1.29,1.48-1.98,2.26-1.11,1.24-2.22,2.46-2.61,2.9-2.19,2.55-5.04,4.26-8.25,4.95-.92.2-1.87.29-2.9.29-3.39,0-7.63-.91-11.74-3.02-1.91,2.6-4.75,4.44-7.89,5.12l-.1.02c-.2.04-.41.08-.61.12l-13.09,2.13c-.13.02-.27.04-.4.06-.58.07-1.16.11-1.74.11-5.98,0-11.1-3.84-12.82-9.49-1.83,1.14-3.94,1.91-6.27,2.25l-.82.12c-2.11.31-4.21.47-6.26.47-12.53,0-23.21-6.05-29.05-15.65l-7.35-.75c-1.96,1.76-4.36,2.88-7.12,3.33-5.15,1.03-11.49,2.28-13.07,2.49l-.17.02c-.57.08-1.18.12-1.78.12-6.4,0-12.01-4.54-13.44-10.83-.37.22-.66.4-.84.51-2.47,1.58-5.28,2.42-8.14,2.42-.39,0-.78-.02-1.16-.05-4.07-.32-9.22-2.99-13.24-6.84-2.24,1.7-5.02,2.71-8,2.71-.32,0-.74-.02-1.06-.04h-.03c-.23-.02-.45-.04-.68-.07l-13.16-1.71c-.13-.02-.26-.04-.39-.06-.1-.02-.19-.03-.29-.05-1.86.93-3.95,1.45-6.14,1.45-.52,0-1.04-.03-1.56-.09-.07,0-16.98-2.24-16.98-2.24-.39-.01-.78-.05-1.17-.1l-1.78-.24c.64.91,1.15,1.93,1.53,3.04l2.76,8.23,8.3-2.56c1.18-.36,2.37-.54,3.54-.54,5.12,0,9.87,3.31,11.46,8.46l1.01,3.26c.67,2.18.71,4.49.12,6.66.56,1.07,1.01,2.17,1.35,3.24,1.77,5.72.79,11.91-2.69,16.98-2.74,4-6.89,7.09-11.38,8.47-.71.22-1.43.4-2.15.54-1.42,1.93-3.42,3.46-5.86,4.28l-3.23,1.08c-1.26.42-2.55.62-3.81.62-5.02,0-9.69-3.17-11.38-8.19l-2.76-8.23-8.29,2.56c-1.18.36-2.37.54-3.54.54-5.12,0-9.87-3.31-11.46-8.46l-1.01-3.26c-.94-3.04-.63-6.33.85-9.15.04-.07.07-.13.11-.2-1.45-1.2-2.62-2.73-3.42-4.5-1.52-3.46-1.43-7.31.23-10.65.07-.14.14-.27.21-.4l1.85-3.41c1.29-2.39,3.39-4.33,5.9-5.43,1.04-.46,2.14-.78,3.27-.94,1.06-1.04,2.31-1.9,3.71-2.52,1.34-.59,2.8-.94,4.27-1.03,1.06-.83,2.27-1.51,3.63-1.96l.09-.03c-4.27-2.69-6.9-7.71-6.36-13.04.01-.12.03-.24.04-.36l4.04-30.34c-2.17.54-4.39.81-6.65.81h0c-11.32,0-21.44-6.74-25.79-17.18-3.38-8.11-2.7-16.96,1.27-24.19-1.67-6.68,1.76-13.8,8.33-16.54l6.23-2.59c1.74-.72,3.58-1.09,5.46-1.09,3.56,0,6.88,1.31,9.43,3.57.69.12,1.36.3,2.02.53l6.19,2.11c3.59,1.22,6.5,3.77,8.18,7.18.62,1.27,1.05,2.6,1.28,3.96,1.25,1.74,2.31,3.62,3.14,5.61.53,1.28.97,2.58,1.3,3.9l10.24,1.34c.2.03.4.06.6.09l17.72,2.36c.19.03.38.06.57.09l.13.02c6.97,1.31,11.83,7.84,11.11,14.87-.02.15-.03.29-.05.44l-.44,3.16,1.05.14c1.58-.15,3.13-.22,4.64-.22,1.21,0,2.43.05,3.61.14,7.86.63,14.73,3.19,20.15,7.18,4.1-9.73,13.08-16.51,24.95-18.08,1.6-.21,3.24-.32,4.87-.32,1.99,0,3.95.16,5.85.47.39.06.78.13,1.16.22,1.37-5.57,6.31-9.5,12.11-9.5.59,0,1.24.04,1.83.13l3.67.55c4.09.58,7.55,3.18,9.36,6.71,1.51.86,2.83,2.03,3.86,3.42.38.06.76.14,1.13.23.61-.09,1.22-.14,1.84-.14,2.04,0,5.08.5,8.04,2.88l1.45,1.15c1.51-.35,3.05-.53,4.59-.53,3.01,0,5.96.66,8.53,1.92.37.18.73.38,1.08.6,2.25,1.4,3.97,3.48,4.98,5.87h.32c3.15-3.97,8.76-6.01,14.32-6.01,7.42,0,13.62,4.3,16.2,10.55,2.43-2.32,5.61-3.59,8.67-3.84l.25-.02c.2-.02.39-.03.59-.03,0,0,13-.43,13.04-.43.09,0,.24,0,.33,0,7.23,0,12.94,5.19,13.71,12.4,3.5,2.17,5.97,5.92,6.38,10.27,1.45-.49,2.96-.89,4.52-1.18,2.2-.41,4.46-.62,6.73-.62,1.01,0,2.02.04,3.01.12.51-.15,1.03-.27,1.56-.37l.36-.07c.33-.06.67-.11,1-.14l11.76-1.17c.59-.06,1.17-.09,1.75-.09,6.9,0,12.59,4.61,13.83,11.21l.07.36c.11.59.18,1.19.2,1.8l.03,1.03c.05,1.41.09,2.84.15,4.23,5.81-1.08,17.21-2.39,41.58-4.6,1.37-2.58,3.52-4.81,6.25-6.34,2.45-1.45,4.91-2.88,7.33-4.26.31-.17.61-.35.92-.52-.22-1.59-.18-3.23.13-4.84.45-2.32,1.43-4.47,2.93-6.42,1.14-1.47,2.53-2.73,4.13-3.74,3.44-2.17,8.31-3.57,11.42-4.11v-.03c.87-.17,2.67-.49,4.89-.74.74-.08,1.79-.19,2.91-.26l5.47-4.12c2.09-1.58,4.63-2.42,7.22-2.42.57,0,1.15.04,1.72.12,3.17.46,6.02,2.17,7.93,4.74l9.08,12.29c3.83,5.18,2.88,12.47-2.15,16.5l-5.66,4.53c-.27.6-.52,1.2-.77,1.79-.15.36-.24.61-.34.86l-.09.25c-2.19,5.66-3.7,8.27-4.4,9.33-.03.05-.06.09-.09.14-1.36,1.98-3.89,5.66-9,7.86-2.41,1.04-5.01,1.57-7.72,1.57h0c-.85,0-1.6-.05-2.19-.11-.3.42-.6.83-.9,1.25-.91,1.28-1.81,2.55-2.68,3.81-2.17,3.28-5.58,5.57-9.4,6.32-.91.18-1.88.28-2.84.28-1.29,0-2.57-.17-3.8-.51-.46,1.29-1.11,2.52-1.93,3.63-2.26,3.06-5.72,5.07-9.49,5.52l-.39.05c1.52,2.08,2.57,4.45,3.1,6.95,1.44,2.47,2.28,5.23,2.44,8.12.26,4.61-1.22,9.22-4.27,13.33-4.82,6.49-10.83,10.87-18.29,13.3l-1.55,1.26c-2.77,2.26-6.27,3.5-9.85,3.5h0ZM96.77,99.7h0Z"/>
    </g>
    <g>
      <path class="cls-7" d="m364.06,183.4c-3.99,0-7.78-1.5-10.68-4.23l-10.83-10.19c-5.91-5.58-6.53-14.87-1.42-21.17l.75-.92c.29-1.31.67-2.82,1.15-4.39-1.28-.14-2.52-.46-3.68-.93-1.65.92-3.18,1.33-4.17,1.51-.86.16-1.72.24-2.73.24-.88,0-4.06-.08-7.96-1.19-2.83,1.38-5.82,2.39-8.87,2.96-2.08.39-4.21.59-6.33.59-10.06,0-19.18-4.33-25.22-11.29-.8.18-1.46.27-1.9.3-.41.03-.83.05-1.26.05-.7,0-1.39-.05-2.07-.16-.35-.04-.7-.09-1.05-.14-.62.74-1.29,1.48-1.98,2.26-1.11,1.24-2.22,2.47-2.61,2.9-2.19,2.55-5.04,4.26-8.25,4.95-.92.2-1.87.29-2.9.29-3.39,0-7.63-.91-11.74-3.02-1.91,2.6-4.75,4.44-7.89,5.12l-.1.02c-.2.04-.41.08-.61.12l-13.09,2.13c-.13.02-.27.04-.4.06-.58.07-1.16.11-1.74.11-5.98,0-11.1-3.84-12.82-9.49-1.83,1.14-3.94,1.91-6.27,2.25l-.82.12c-2.11.31-4.21.47-6.26.47-12.53,0-23.21-6.05-29.05-15.65l-7.37-.75c-1.89,1.69-4.31,2.87-7.09,3.33-5.15,1.04-11.5,2.29-13.09,2.5l-.17.02c-.57.08-1.18.12-1.78.12-6.4,0-12.01-4.54-13.44-10.83-.37.22-.66.4-.84.51-2.47,1.58-5.28,2.42-8.14,2.42-.39,0-.78-.02-1.16-.05-4.07-.32-9.22-2.99-13.24-6.84-2.24,1.7-5.02,2.71-8,2.71-.32,0-.74-.02-1.06-.04h-.12c-.2-.03-.39-.05-.59-.07l-13.16-1.71c-.13-.02-.26-.04-.39-.06-.1-.02-.19-.03-.29-.05-1.86.93-3.95,1.45-6.14,1.45-.52,0-1.04-.03-1.56-.09-.07,0-16.98-2.24-16.98-2.24-.39-.01-.78-.05-1.17-.1l-1.78-.24c.64.91,1.15,1.93,1.53,3.04l2.76,8.23,8.3-2.56c1.18-.36,2.37-.54,3.54-.54,5.12,0,9.87,3.31,11.46,8.46l1.01,3.26c.67,2.18.71,4.49.12,6.66.56,1.07,1.01,2.17,1.35,3.24,1.77,5.72.79,11.91-2.69,16.98-2.74,4-6.89,7.09-11.38,8.47-.71.22-1.43.4-2.15.54-1.42,1.93-3.42,3.46-5.86,4.28l-3.23,1.08c-1.26.42-2.55.62-3.81.62-5.02,0-9.69-3.17-11.38-8.19l-2.76-8.23-8.29,2.56c-1.18.36-2.37.54-3.54.54-5.12,0-9.87-3.31-11.46-8.46l-1.01-3.26c-.94-3.04-.63-6.33.85-9.15.04-.07.07-.13.11-.2-1.45-1.2-2.62-2.73-3.42-4.5-1.52-3.44-1.43-7.29.21-10.61.07-.15.15-.29.23-.44l1.85-3.41c1.29-2.39,3.39-4.33,5.9-5.43,1.04-.46,2.14-.78,3.27-.94,1.06-1.04,2.31-1.9,3.71-2.52,1.34-.59,2.8-.94,4.27-1.03,1.06-.83,2.27-1.51,3.63-1.96l.11-.04c-4.3-2.7-6.92-7.72-6.38-13.03.01-.12.03-.24.04-.36l4.04-30.34c-2.17.54-4.39.81-6.65.81h0c-11.32,0-21.44-6.74-25.79-17.18-3.38-8.11-2.7-16.96,1.27-24.19-1.67-6.68,1.76-13.8,8.33-16.54l6.23-2.59c1.74-.72,3.58-1.09,5.46-1.09.92,0,1.83.09,2.71.26.09-.22.19-.45.3-.67,1.43-3,3.95-5.25,7.09-6.36l4.44-1.57c1.36-.48,2.78-.73,4.2-.73,9.05,0,12.02,8.42,13,11.18.95,2.69,1.6,5.45,2,7.47.84,1.16,1.52,2.45,2.02,3.84,1.69,4.78.83,9.85-1.86,13.72l7.9,1.03c.2.03.4.06.6.09l17.72,2.36c.19.03.38.06.57.09l.13.02c6.97,1.3,11.83,7.83,11.11,14.87-.02.15-.03.29-.05.44l-.44,3.16,1.05.14c1.58-.15,3.13-.22,4.64-.22,1.21,0,2.43.05,3.61.14,7.86.63,14.73,3.19,20.14,7.18,4.1-9.73,13.08-16.51,24.95-18.08,1.6-.21,3.24-.32,4.87-.32,1.99,0,3.95.16,5.85.47.39.06.78.13,1.16.22,1.37-5.57,6.31-9.5,12.11-9.5.59,0,1.24.04,1.83.13l3.67.55c4.09.58,7.55,3.18,9.36,6.71,1.51.86,2.83,2.03,3.86,3.42.38.06.76.14,1.13.23.61-.09,1.22-.14,1.84-.14,2.04,0,5.08.5,8.04,2.88l1.45,1.15c1.51-.35,3.05-.53,4.59-.53,3.01,0,5.96.66,8.53,1.92.37.18.73.38,1.08.6,2.25,1.4,3.97,3.48,4.98,5.87h.32c3.15-3.97,8.76-6.01,14.32-6.01,7.42,0,13.62,4.3,16.2,10.55,2.43-2.32,5.61-3.59,8.67-3.84l.25-.02c.2-.02.39-.03.59-.03,0,0,13-.43,13.04-.43.09,0,.24,0,.33,0,7.23,0,12.94,5.19,13.71,12.4,3.5,2.17,5.97,5.92,6.38,10.27,1.45-.49,2.96-.89,4.52-1.18,2.2-.41,4.46-.62,6.73-.62,1.01,0,2.02.04,3.01.12.51-.15,1.03-.27,1.56-.37l.36-.07c.33-.06.67-.11,1.01-.14l10.47-1.04c-.2-.55-.37-1.11-.5-1.7l-2.89-12.56c-.09-.41-.17-.83-.22-1.25l-.06-.51c-.78-6.55,2.51-12.6,8.2-15.07.18-.08.37-.15.55-.22,5.81-2.19,11.48-3.62,16.87-4.27,2.25-.27,4.48-.41,6.65-.41,21.62,0,38.41,14.15,40.83,34.42.26,2.14.34,4.26.26,6.36.93-.54,1.86-1.07,2.78-1.6.31-.17.61-.35.92-.52-.22-1.59-.18-3.23.13-4.84.45-2.32,1.43-4.47,2.93-6.42,1.14-1.47,2.53-2.73,4.13-3.74,3.44-2.17,8.31-3.57,11.42-4.11v-.03c.87-.17,2.67-.49,4.89-.74.74-.08,1.79-.19,2.91-.26l5.47-4.12c2.09-1.58,4.63-2.42,7.22-2.42.57,0,1.15.04,1.72.12,3.17.46,6.02,2.17,7.93,4.74l9.08,12.29c3.83,5.18,2.88,12.47-2.15,16.5l-5.66,4.53c-.27.6-.52,1.2-.77,1.79-.15.36-.24.61-.34.86l-.09.25c-2.19,5.66-3.7,8.27-4.4,9.33-.03.05-.06.09-.09.14-1.36,1.98-3.89,5.66-9,7.86-2.41,1.04-5.01,1.57-7.72,1.57h0c-.85,0-1.6-.05-2.19-.11-.3.42-.6.83-.9,1.25-.91,1.28-1.81,2.55-2.68,3.81-2.17,3.28-5.58,5.57-9.4,6.32-.91.18-1.88.28-2.84.28-1.29,0-2.57-.17-3.8-.51-.46,1.29-1.1,2.51-1.93,3.63-2.27,3.07-5.73,5.08-9.5,5.53l-.39.05c1.51,2.08,2.56,4.43,3.1,6.92,1.43,2.46,2.28,5.24,2.45,8.16.26,4.61-1.22,9.22-4.27,13.33-4.82,6.49-10.83,10.87-18.29,13.3l-1.55,1.26c-2.77,2.26-6.27,3.5-9.85,3.5Zm-22.7-93.91c.25.7.45,1.42.59,2.17l.07.36c.11.59.18,1.19.2,1.8,0,0,.1,3.02.14,4.01,4.94-3.32,7.1-7.39,7.27-9.62-.26-.03-.59-.06-1.01-.06-.48,0-1.02.04-1.58.1-1.17.14-2.6.44-4.03.85-.24.07-.48.13-.72.18-.23.06-.55.13-.92.21Zm-244.58,2.54h0Z"/>
      <path class="cls-7" d="m364.06,183.4c-3.99,0-7.78-1.5-10.68-4.23l-10.83-10.19c-5.91-5.58-6.53-14.87-1.42-21.17l.75-.92c.29-1.31.67-2.82,1.15-4.39-1.28-.14-2.52-.46-3.68-.93-1.65.92-3.18,1.33-4.17,1.51-.86.16-1.72.24-2.73.24-.88,0-4.06-.08-7.96-1.19-2.83,1.38-5.82,2.39-8.87,2.96-2.08.39-4.21.59-6.33.59-10.06,0-19.18-4.33-25.22-11.29-.8.18-1.46.27-1.9.3-.41.03-.83.05-1.26.05-.7,0-1.39-.05-2.07-.16-.35-.04-.7-.09-1.05-.14-.62.74-1.29,1.48-1.98,2.26-1.11,1.24-2.22,2.47-2.61,2.9-2.19,2.55-5.04,4.26-8.25,4.95-.92.2-1.87.29-2.9.29-3.39,0-7.63-.91-11.74-3.02-1.91,2.6-4.75,4.44-7.89,5.12l-.1.02c-.2.04-.41.08-.61.12l-13.09,2.13c-.13.02-.27.04-.4.06-.58.07-1.16.11-1.74.11-5.98,0-11.1-3.84-12.82-9.49-1.83,1.14-3.94,1.91-6.27,2.25l-.82.12c-2.11.31-4.21.47-6.26.47-12.53,0-23.21-6.05-29.05-15.65l-7.37-.75c-1.89,1.69-4.31,2.87-7.09,3.33-5.15,1.04-11.5,2.29-13.09,2.5l-.17.02c-.57.08-1.18.12-1.78.12-6.4,0-12.01-4.54-13.44-10.83-.37.22-.66.4-.84.51-2.47,1.58-5.28,2.42-8.14,2.42-.39,0-.78-.02-1.16-.05-4.07-.32-9.22-2.99-13.24-6.84-2.24,1.7-5.02,2.71-8,2.71-.32,0-.74-.02-1.06-.04h-.12c-.2-.03-.39-.05-.59-.07l-13.16-1.71c-.13-.02-.26-.04-.39-.06-.1-.02-.19-.03-.29-.05-1.86.93-3.95,1.45-6.14,1.45-.52,0-1.04-.03-1.56-.09-.07,0-16.98-2.24-16.98-2.24-.39-.01-.78-.05-1.17-.1l-1.78-.24c.64.91,1.15,1.93,1.53,3.04l2.76,8.23,8.3-2.56c1.18-.36,2.37-.54,3.54-.54,5.12,0,9.87,3.31,11.46,8.46l1.01,3.26c.67,2.18.71,4.49.12,6.66.56,1.07,1.01,2.17,1.35,3.24,1.77,5.72.79,11.91-2.69,16.98-2.74,4-6.89,7.09-11.38,8.47-.71.22-1.43.4-2.15.54-1.42,1.93-3.42,3.46-5.86,4.28l-3.23,1.08c-1.26.42-2.55.62-3.81.62-5.02,0-9.69-3.17-11.38-8.19l-2.76-8.23-8.29,2.56c-1.18.36-2.37.54-3.54.54-5.12,0-9.87-3.31-11.46-8.46l-1.01-3.26c-.94-3.04-.63-6.33.85-9.15.04-.07.07-.13.11-.2-1.45-1.2-2.62-2.73-3.42-4.5-1.52-3.44-1.43-7.29.21-10.61.07-.15.15-.29.23-.44l1.85-3.41c1.29-2.39,3.39-4.33,5.9-5.43,1.04-.46,2.14-.78,3.27-.94,1.06-1.04,2.31-1.9,3.71-2.52,1.34-.59,2.8-.94,4.27-1.03,1.06-.83,2.27-1.51,3.63-1.96l.11-.04c-4.3-2.7-6.92-7.72-6.38-13.03.01-.12.03-.24.04-.36l4.04-30.34c-2.17.54-4.39.81-6.65.81h0c-11.32,0-21.44-6.74-25.79-17.18-3.38-8.11-2.7-16.96,1.27-24.19-1.67-6.68,1.76-13.8,8.33-16.54l6.23-2.59c1.74-.72,3.58-1.09,5.46-1.09.92,0,1.83.09,2.71.26.09-.22.19-.45.3-.67,1.43-3,3.95-5.25,7.09-6.36l4.44-1.57c1.36-.48,2.78-.73,4.2-.73,9.05,0,12.02,8.42,13,11.18.95,2.69,1.6,5.45,2,7.47.84,1.16,1.52,2.45,2.02,3.84,1.69,4.78.83,9.85-1.86,13.72l7.9,1.03c.2.03.4.06.6.09l17.72,2.36c.19.03.38.06.57.09l.13.02c6.97,1.3,11.83,7.83,11.11,14.87-.02.15-.03.29-.05.44l-.44,3.16,1.05.14c1.58-.15,3.13-.22,4.64-.22,1.21,0,2.43.05,3.61.14,7.86.63,14.73,3.19,20.14,7.18,4.1-9.73,13.08-16.51,24.95-18.08,1.6-.21,3.24-.32,4.87-.32,1.99,0,3.95.16,5.85.47.39.06.78.13,1.16.22,1.37-5.57,6.31-9.5,12.11-9.5.59,0,1.24.04,1.83.13l3.67.55c4.09.58,7.55,3.18,9.36,6.71,1.51.86,2.83,2.03,3.86,3.42.38.06.76.14,1.13.23.61-.09,1.22-.14,1.84-.14,2.04,0,5.08.5,8.04,2.88l1.45,1.15c1.51-.35,3.05-.53,4.59-.53,3.01,0,5.96.66,8.53,1.92.37.18.73.38,1.08.6,2.25,1.4,3.97,3.48,4.98,5.87h.32c3.15-3.97,8.76-6.01,14.32-6.01,7.42,0,13.62,4.3,16.2,10.55,2.43-2.32,5.61-3.59,8.67-3.84l.25-.02c.2-.02.39-.03.59-.03,0,0,13-.43,13.04-.43.09,0,.24,0,.33,0,7.23,0,12.94,5.19,13.71,12.4,3.5,2.17,5.97,5.92,6.38,10.27,1.45-.49,2.96-.89,4.52-1.18,2.2-.41,4.46-.62,6.73-.62,1.01,0,2.02.04,3.01.12.51-.15,1.03-.27,1.56-.37l.36-.07c.33-.06.67-.11,1.01-.14l10.47-1.04c-.2-.55-.37-1.11-.5-1.7l-2.89-12.56c-.09-.41-.17-.83-.22-1.25l-.06-.51c-.78-6.55,2.51-12.6,8.2-15.07.18-.08.37-.15.55-.22,5.81-2.19,11.48-3.62,16.87-4.27,2.25-.27,4.48-.41,6.65-.41,21.62,0,38.41,14.15,40.83,34.42.26,2.14.34,4.26.26,6.36.93-.54,1.86-1.07,2.78-1.6.31-.17.61-.35.92-.52-.22-1.59-.18-3.23.13-4.84.45-2.32,1.43-4.47,2.93-6.42,1.14-1.47,2.53-2.73,4.13-3.74,3.44-2.17,8.31-3.57,11.42-4.11v-.03c.87-.17,2.67-.49,4.89-.74.74-.08,1.79-.19,2.91-.26l5.47-4.12c2.09-1.58,4.63-2.42,7.22-2.42.57,0,1.15.04,1.72.12,3.17.46,6.02,2.17,7.93,4.74l9.08,12.29c3.83,5.18,2.88,12.47-2.15,16.5l-5.66,4.53c-.27.6-.52,1.2-.77,1.79-.15.36-.24.61-.34.86l-.09.25c-2.19,5.66-3.7,8.27-4.4,9.33-.03.05-.06.09-.09.14-1.36,1.98-3.89,5.66-9,7.86-2.41,1.04-5.01,1.57-7.72,1.57h0c-.85,0-1.6-.05-2.19-.11-.3.42-.6.83-.9,1.25-.91,1.28-1.81,2.55-2.68,3.81-2.17,3.28-5.58,5.57-9.4,6.32-.91.18-1.88.28-2.84.28-1.29,0-2.57-.17-3.8-.51-.46,1.29-1.1,2.51-1.93,3.63-2.27,3.07-5.73,5.08-9.5,5.53l-.39.05c1.51,2.08,2.56,4.43,3.1,6.92,1.43,2.46,2.28,5.24,2.45,8.16.26,4.61-1.22,9.22-4.27,13.33-4.82,6.49-10.83,10.87-18.29,13.3l-1.55,1.26c-2.77,2.26-6.27,3.5-9.85,3.5Zm-22.7-93.91c.25.7.45,1.42.59,2.17l.07.36c.11.59.18,1.19.2,1.8,0,0,.1,3.02.14,4.01,4.94-3.32,7.1-7.39,7.27-9.62-.26-.03-.59-.06-1.01-.06-.48,0-1.02.04-1.58.1-1.17.14-2.6.44-4.03.85-.24.07-.48.13-.72.18-.23.06-.55.13-.92.21Zm-244.58,2.54h0Z"/>
    </g>
  </g>
  <g id="Original">
    <g>
      <g>
        <path class="cls-12" d="m57.35,104.63c-.07-.01-.21.03-.28.02l-13.21-1.78-.13-.03c-.81-.15-1.34-1.01-1.26-1.83l7.03-52.86.03-.13c.15-.81,1.03-1.41,1.83-1.26l12.34,1.61.27.05,18.03,2.4.13.03c.81.15,1.41,1.03,1.32,1.84l-1.65,11.78-.03.13c-.15.81-1.03,1.41-1.84,1.32l-15.79-2.12-.74,5.83,12.01,2.25c.8.15,1.48.97,1.32,1.84l-.03.13-2.05,10.24c-.24.93-1.05,1.54-1.99,1.36l-11.14-2.08-.83,6.3,16.47,2.18.13.03c.87.16,1.47,1.04,1.32,1.84l-1.71,11.76c-.16.87-.98,1.55-1.94,1.44l-17.62-2.32Z"/>
        <path class="cls-12" d="m156.27,115.16c.2,1.49-.72,1.82-1.6,1.93,0,0-11,2.21-12.56,2.42l-.14.02c-1.02.13-1.8-.59-1.99-1.53-1.16-6.66-2.83-15.19-4.1-23.22l-4.91.37c-.75.03-1.45-.57-1.55-1.31l-.67-11.34c-.03-.75.5-1.44,1.31-1.55l3.95-.32-.13-2.53c-.37-12.69,8.38-18.39,16.98-19.53,2.57-.34,5.13-.26,7.38.13.91.09,1.24,1.08,1.33,1.75l.04.27-.2,7.88c0,1.1-.99,1.92-1.87,2.04l-.2.03c-3.45.46-8.1,2.24-7.26,8.67l5.8-.42c.74-.1,1.44.5,1.55,1.31l.67,11.34c.02.69-.44,1.37-1.18,1.46l-.14.02-4.76.42c1.23,7.21,2.83,15.19,4.2,21.34l.04.34Z"/>
        <path class="cls-12" d="m160.9,113.21c-.81-.13-1.4-.77-1.27-1.58l3.66-35.36c.13-.81.84-1.39,1.58-1.27l7.89.83c3.82-.57,7.41-.56,10.79-.02,2.29.36,4.47.98,6.49,1.79.97.43,1.29,1.03,1.16,1.84-.04.27-.15.53-.27.86l-3.46,9.2c-.35.91-1.1,1.28-1.91,1.15-.2-.03-.46-.14-.72-.25-1.03-.51-2.14-.89-3.29-1.07-.94-.15-1.91-.16-3.03-.06l-2.49,24.07-.02.14c-.12.74-.82,1.25-1.56,1.14l-13.54-1.38Z"/>
        <path class="cls-12" d="m204.79,129.63c-15.33,2.26-24.57-7.07-26.09-17.34-1.42-9.66,3.9-20.79,19.3-23.06,16.75-2.47,19.69,12.35,20.02,14.58.46,3.11-.45,5.86-4.23,7.8-3.01,1.55-7.9,3.03-11.4,3.68-1.08.16-1.49-.26-1.88-1.03-1.14-2.11-3.07-6.31-3.11-6.58-.11-.74.38-1.16,1.23-1.49,3.39-1.33,3.85-1.53,3.71-2.48-.09-.61-1.69-2.58-4.53-2.16-3.24.48-5.53,3.71-4.91,7.9.71,4.8,5.02,9.68,13.46,8.44.47-.07,1.01-.15,1.48-.29l.13-.02c.95-.14,2.18.3,2.35,1.45.1.68-.98,5.53-1.65,7.97-.38,1.16-1.12,2.24-3.08,2.52l-.81.12Z"/>
        <path class="cls-12" d="m283.21,119.82c-.44,1.34-1,2.07-2.02,2.15-.2.02-.41.03-.62-.02-11.13-1.29-15.42-6.97-17.16-24.16l-5.13.14c-.75,0-1.42-.64-1.48-1.39l-.1-11.36c0-.75.57-1.42,1.39-1.48l4.38-.08c-.07-2.6-.16-5.4-.19-8.34,0-.82.03-2.13,1.8-2.27l.27-.02,12.91-.43c1.16-.03,1.76.61,1.86,1.77.09,2.87.13,5.88.16,8.75l4.72-.11c.75-.06,1.42.57,1.48,1.39l.1,11.36c-.01.69-.51,1.34-1.26,1.4h-.14s-4.51.17-4.51.17c.5,6.19,1.7,10.82,4.79,11.87.78.28,1.61.49,1.68,1.23.01.14-.04.35-.09.56l-2.85,8.86Z"/>
        <path class="cls-12" d="m334.77,128.38c-.39,1.25-.95,1.98-1.82,2.15-.67.13-5.57-.06-9.52-2.59-3.15,2.47-6.62,3.95-10.04,4.6-11.2,2.11-22.48-4.67-24.51-15.47-1.51-8.05,2.01-20.73,15.29-23.23,3.36-.63,6.78-.51,9.61.14.31-.55.88-.86,1.68-1.01l.34-.06,11.8-1.18c1.77-.19,2.4.59,2.55,1.4l.06.34c.21,6.28.37,12.3,1.2,16.72.76,4.03,2.04,6.77,4.4,7.51.73.21,1.55.47,1.67,1.14.03.13,0,.35-.09.64l-2.63,8.9Zm-19.35-15.74c-.33-1.74-.6-3.57-.85-5.61-1.06-1.19-3.05-1.79-4.99-1.42-4.23.79-5.81,5.33-5.16,8.75.71,3.76,3.93,6.49,8.29,5.67,1.27-.24,2.7-.79,4.12-1.75-.53-1.71-1.02-3.56-1.41-5.64Z"/>
        <path class="cls-1" d="m344.58,129.81c-.94.11-1.73-.74-1.86-1.85l-1.67-13.95c-.17-1.45-.08-2.84,1.15-3.33,13.81-5.71,20.31-17.01,19.33-25.26-.77-6.46-6.06-11.01-15.93-9.83-1.79.21-3.81.63-5.89,1.22-.17.02-.5.15-.93.2-.94.11-2.16,0-2.51-1.51-.96-4.17-1.92-8.34-2.88-12.51-.02-.17-.04-.34-.06-.51-.14-1.19.25-2.27,1.07-2.63,5.04-1.9,9.73-3.06,14.07-3.58,20.59-2.46,32.48,9.66,34.14,23.53,1.13,9.44-2.48,19.62-11.51,26.4-.47.4-.69.69-.66.94.04.34.58.53,1.01.48h.09s17.84-2.32,17.84-2.32c1.02-.12,1.8.65,1.95,1.84.59,4.93,1.18,9.87,1.77,14.8.02.12.12.86-.38,1.53-.3.4-.74.67-1.25.73l-46.87,5.61Z"/>
      </g>
      <path class="cls-11" d="m41.55,141.19c-.04.1-.12.15-.2.19-.12.05-.28.06-.42,0l-5.35-2.29c-.56,2.09-1.54,4.63-2.05,5.76-.06.15-.17.26-.29.32-.07.03-.16.05-.25.03l-3.27-.67c-.16-.03-.27-.13-.32-.25-.04-.09-.04-.19-.02-.28.43-1.58,1.24-4.37,1.74-6.82l-6.21-2.67c-.1-.04-.17-.11-.22-.21-.05-.12-.04-.27.03-.41l1.85-3.41c.05-.08.12-.16.2-.19.14-.06.31-.05.44.01l5.06,2.17c.53-2.11,1-4.16,1.21-5.31.03-.16.13-.26.25-.32.09-.04.2-.05.3-.03l3.59.78c.2.03.36.17.45.36.24.53-.12,3.03-1.06,6.54l6.23,2.68c.1.04.15.1.18.19.06.14.06.28-.02.42l-1.85,3.41Z"/>
      <path class="cls-3" d="m66.15,160.09c-4.11,1.27-8.66-.65-10.04-5.14-.31-.99-.45-2.11-.42-3.35.13-3.73,3.09-6.31,6.26-7.29,5.77-1.78,9.41,2.31,10.34,5.32,1.53,4.96-2.48,9.32-6.14,10.45Zm1.59-9.06c-.55-1.79-2.15-3.58-4.66-2.81s-2.83,3.32-2.32,4.96c.71,2.29,2.92,3.31,4.78,2.73,2.15-.66,2.83-2.85,2.2-4.89Z"/>
      <path class="cls-11" d="m181.43,66.15l-3.62-.19c-.25-.02-.48-.21-.48-.46v-.02l.08-1.66-5.59-.29c-.72-.04-1.04-.48-1.04-1.1,0-.12.02-.23.04-.37l1.99-12.1c.04-.23.23-.41.46-.41h.06l3.75.56c.21.02.41.21.41.42,0,.04-.02.06-.02.1l-1.49,8.27c-.02.1-.02.17-.02.23,0,.48.35.52.64.54l1.04.06.21-4.18c.02-.25.27-.44.52-.44h.04l3.6.19c.25.02.44.21.44.44v.04l-.23,4.18,1.28.08c.23,0,.44.21.44.44v.04l-.14,3.15c-.02.23-.21.44-.46.44h-.04l-1.29-.06-.1,1.64c-.02.23-.21.44-.44.44h-.04Z"/>
      <path class="cls-10" d="m195.12,71.61c-.23.13-.41.19-.56.19-.19,0-.37-.1-.58-.33l-1.93-2.24c-.93.71-1.95,1.41-2.71,1.93-.21.14-.39.23-.58.23-.12,0-.25-.04-.39-.15l-2.28-1.84c-.21-.17-.31-.35-.31-.5,0-.13.06-.27.21-.41.66-.58,1.91-1.66,3.05-2.73l-2.57-3c-.15-.17-.21-.33-.21-.46,0-.19.15-.37.39-.48l2.92-1.51c.15-.08.29-.12.43-.12.25,0,.48.13.66.35l1.86,2.17,2.01-2.03c.14-.14.27-.23.44-.23.15,0,.33.08.54.25l2.53,2.01c.17.14.25.25.25.39,0,.66-2.28,2.86-2.67,3.23l2.49,2.88c.14.15.19.29.19.43,0,.19-.14.37-.37.48l-2.82,1.49Z"/>
      <path class="cls-5" d="m212,67.9c-.06.19-.15.39-.37.39-.02,0-.06,0-.1-.02-.46-.1-.93-.15-1.37-.15-2.2,0-4.02,1.24-4.04,3.4,1.02-.68,2.36-1.02,3.69-1.02,2.71,0,5.41,1.45,5.41,4.6s-2.73,5.67-6.42,5.67-7.37-2.47-7.37-8c0-8.68,6.63-8.8,7.6-8.8,1.16,0,2.3.23,3.25.7.15.1.33.33.33.56v.06l-.62,2.63Zm-3.31,8.76c.99,0,2.09-.48,2.09-1.45,0-.89-.87-1.26-1.82-1.26-1.08,0-2.28.48-2.47,1.24.35,1.04,1.3,1.47,2.2,1.47Z"/>
      <path class="cls-9" d="m235.65,74.51c-.02-.08-.04-.13-.04-.19,0-.31.29-.37.41-.39,2.76-.37,3.05-1.57,3.05-2.11,0-.68-.56-1.33-1.86-1.33-.68,0-1.57.19-2.63.68-.04.02-.1.04-.17.04-.12,0-.27-.08-.33-.31l-.72-3v-.06c0-.54,3.04-1.51,4.89-1.51,3.38,0,5.47,2.38,5.47,5.08,0,2.49-1.76,5.07-5.39,5.47-.7.06-1.14.08-1.58.08-.15,0-.46-.02-.58-.46l-.52-1.99Zm3.27,8.53c-1.43,0-2.73-1.18-2.73-2.75,0-1.47,1.12-2.76,2.75-2.76s2.76,1.26,2.76,2.78-1.33,2.73-2.78,2.73Z"/>
      <path class="cls-10" d="m221.56,74.94c-.21,0-.41-.29-.41-.61v-1.42c0-.32.19-.58.41-.58h6.19c.21,0,.39.26.39.61v1.39c0,.35-.19.61-.41.61h-6.17Zm0,3.4c-.21,0-.41-.24-.41-.56v-1.27c0-.29.19-.53.41-.53h6.19c.21,0,.39.24.39.53v1.3c0,.29-.19.53-.41.53h-6.17Z"/>
      <path class="cls-6" d="m429.06,103.33c1.93-.83,2.94-2.3,3.86-3.64,0,0,1.15-1.72,3.19-7,.15-.39.28-.72.5-1.28.39-.98.98-2.36,1.76-3.96.2-.41.37-.75.49-.98l7.8-6.25c-3.03-4.1-6.05-8.19-9.08-12.29l-8.57,6.46c-.7-.02-1.6-.03-2.65.02-.32.01-1.39.06-3.02.25-2.06.24-3.62.53-4,.6,0,0-4.74.91-7.29,2.51-.32.2-.69.48-1.02.91-.18.24-.52.68-.65,1.35-.03.15-.23,1.29.51,2.3.28.37.59.6.8.73.06.03.12.05.17.08-.03.05-.07.11-.12.19-.07.11-.23.39-.37.78-.05.13-.19.54-.22,1.01-.11,1.42.81,2.48.87,2.55.18.2.44.45.83.68-3.08,1.67-6.2,3.41-9.36,5.21-2.49,1.42-4.93,2.84-7.33,4.26-1.18.62-1.92,1.67-1.86,2.65.04.65.4,1.16.4,1.16.35.5.82.71,1.03.8,1.23.55,3.23-.37,3.23-.37,1.63-.75,8.23-3.84,17.28-8.24h0c-.12.07-2.28,1.42-2.15,3.42.02.3.1.72.36,1.19-1.88,2.87-3.76,5.73-5.63,8.6-1.08,1.68-1.89,3.14-2.48,4.28-.4.78-.77,1.55-.54,2.41.24.94,1.03,1.41,1.09,1.45.74.43,1.48.3,1.7.26,1.09-.21,1.65-1.07,1.75-1.23.94-1.36,1.9-2.74,2.89-4.12,2.05-2.87,4.11-5.62,6.16-8.27.92.66,2.65,1.69,5.03,1.99.99.13,2.74.35,4.62-.46Z"/>
      <path class="cls-14" d="m384.12,157.42c1.37-1.85,2.02-3.71,1.92-5.51-.09-1.59-.79-3.08-1.96-4.19-.04-.04-.08-.08-.13-.12.2-2.03-.49-3.89-1.97-5.29-.33-.31-.7-.6-1.1-.86.05-1.72-.6-3.36-1.8-4.5-.73-.69-1.63-1.16-2.61-1.36-.25-1.06-.82-2.05-1.66-2.84-1.08-1.01-2.43-1.55-3.83-1.51-1.39.04-2.67.64-3.7,1.74-1.23,1.3-1.48,1.58-1.73,1.85-.2.22-.39.42-1.08,1.16-1.57-.43-3.12-.22-4.53.6-2.17,1.27-3.89,3.91-5.25,8.08-.9,2.75-1.39,5.42-1.6,6.67l-2.64,3.25c-1.18,1.45-1.03,3.59.33,4.87l10.83,10.19c1.31,1.23,3.34,1.3,4.73.17l3.44-2.8c7.95-2.01,12-6.44,14.35-9.62Z"/>
      <path class="cls-12" d="m263.12,113.88c.78,3.63,2.25,6.36,5.43,8.25.46.24,1.25.75,1.4,1.46.08.39-.03.82-.41,1.24.03.13-5.4,6.11-5.4,6.11-.54.66-1.14.99-1.73,1.12-1.17.25-12.27-.96-14.74-12.49l-.47-2.2c-1.46-6.8-5.38-8.95-10.16-8.19l3.82,23.78c.14.65-.32,1.36-.97,1.49l-.13.03-13.1,2.13c-.79.1-1.43-.37-1.6-1.15l-5.48-34.06c-.09-.73.37-1.43,1.02-1.57l.13-.03,7.34-1.17c2.42-1.06,4.76-1.83,7.09-2.33,13.15-2.82,24.85,3.07,27.51,15.45l.46,2.14Z"/>
      <path class="cls-12" d="m124.98,94.41c-.3,3.7.33,6.74,2.84,9.47.37.36.98,1.08.92,1.8-.03.4-.26.78-.75,1.07-.01.13-6.92,4.3-6.92,4.3-.7.48-1.38.62-1.97.57-1.19-.09-11.48-4.44-10.54-16.19l.18-2.25c.55-6.94-2.58-10.11-7.39-10.76l-3.17,23.88c-.05.66-.69,1.21-1.35,1.15h-.13s-13.16-1.72-13.16-1.72c-.79-.13-1.27-.77-1.2-1.56l4.52-34.2c.12-.72.77-1.27,1.43-1.22h.13s7.37,1,7.37,1c2.62-.32,5.08-.39,7.46-.2,13.41,1.07,22.93,10.07,21.92,22.69l-.17,2.18Z"/>
      <g>
        <path class="cls-9" d="m38,29.66c.27-.25.49-.57.61-.93l.02-.06c.39-1.16-.23-2.42-1.39-2.82l-6.19-2.1c-.51-.17-1.07-.16-1.57.05-.59.25-1.04.73-1.25,1.33l-.02.06c-.1.28-.13.58-.11.87-1.24-.02-2.49.12-3.74.4l-.66-1.57.63-.26c1.13-.47,1.66-1.77,1.19-2.89l-.03-.08c-.47-1.13-1.77-1.66-2.89-1.19l-6.22,2.59c-1.13.47-1.66,1.77-1.19,2.89l.03.08c.47,1.13,1.77,1.66,2.89,1.19l.73-.31.65,1.56c-6.49,4.05-9.3,12.33-6.26,19.62,3.37,8.1,12.71,11.94,20.81,8.57,8.1-3.37,11.94-12.71,8.57-20.81-1.04-2.5-2.66-4.6-4.62-6.2Zm-5.43,23.44c-6.13,2.55-13.2-.36-15.75-6.49s.36-13.2,6.49-15.75c6.13-2.55,13.2.36,15.75,6.49s-.36,13.2-6.49,15.75Z"/>
        <path class="cls-15" d="m28.07,38.21l-3.32-3.45c-.62-.64-1.64-.66-2.28-.04s-.66,1.64-.04,2.28l3.33,3.46c-.29,1.05-.04,2.23.77,3.08,1.22,1.27,3.25,1.31,4.52.09s1.31-3.25.09-4.52c-.82-.85-2-1.15-3.07-.89Z"/>
        <path class="cls-2" d="m28.77,38.12l-2.47-4.1c-.46-.76-1.45-1.01-2.21-.55s-1.01,1.45-.55,2.21l2.48,4.11c-.52.96-.53,2.17.07,3.17.91,1.51,2.88,2,4.39,1.08s2-2.88,1.08-4.39c-.61-1.01-1.69-1.56-2.8-1.54Z"/>
      </g>
      <path class="cls-2" d="m19.54,42.23c0,2.57,1.61,4.59,1.85,4.5.19-.07-.38-1.59.04-1.81.39-.21,1.31.87,1.46.74.1-.09-.33-.6-.7-1.46-.16-.37-.51-1.19-.5-2.2,0-.76.19-1.44.29-1.81.26-.92.53-1.3.33-1.66-.17-.29-.58-.47-.92-.42-1.04.12-1.84,2.33-1.84,4.13Z"/>
      <path class="cls-4" d="m41.96,27.83c-.58-1.65.28-3.45,1.93-4.03,1.63-.57,3.43.29,4.01,1.94s-.28,3.45-1.91,4.03c-1.65.58-3.45-.28-4.03-1.93Zm-.09-4.31c-.25.09-.5-.03-.61-.27-.78-1.81-2.94-6.93-3.98-9.8-.08-.23.01-.5.26-.59l4.46-1.57c.38-.13.71-.18,1.88,3.13.87,2.46,1.47,5.22,1.81,7.26.05.26-.05.51-.3.6l-3.52,1.24Z"/>
      <polyline class="cls-13" points="69.81 136.49 70.82 139.74 51.4 145.74 57.86 165 54.63 166.09 48.15 146.74 28.66 152.76 27.65 149.5 47.06 143.51 40.61 124.25 43.84 123.16 50.33 142.5"/>
    </g>
  </g>
</svg>